<?xml version="1.0" encoding="UTF-8"?>
<svg id="Layer_1" xmlns="http://www.w3.org/2000/svg" version="1.1" viewBox="0 0 440 1030">
  <!-- Generator: Adobe Illustrator 29.1.0, SVG Export Plug-In . SVG Version: 2.1.0 Build 142)  -->
  <defs>
    <style>
      .st0 {
        fill: #828282;
      }
    </style>
  </defs>
  <path class="st0" d="M420.4,466.3c0-121.5-20.8-232-54.8-313-17.1-40.6-37.8-74.5-61.7-98.6-24.1-24.2-52.2-39.3-83.4-39.3s-59.5,15.1-83.4,39.3c-24,24.1-44.7,58-61.7,98.6-34,81-54.7,191.8-54.8,313h0v.8s0,0,0,0h0l.2,546.3h399.6V466.3h0ZM385.7,467.2h-34v52.2h34v459.3H55.5v-460.3h34.7v-52.2h-34.7c0-117.7,20.2-223.6,52-299.4,15.9-38,34.5-67.6,54.6-87.5,19.7-19.8,39.6-29,58.7-29s39.1,9.2,58.7,29c19.6,19.9,38.2,49.5,54.2,87.5,31.8,75.9,52,182.1,52,300.3h0Z"/>
</svg>