<?xml version="1.0" standalone="no"?><!DOCTYPE svg PUBLIC "-//W3C//DTD SVG 1.1//EN" "http://www.w3.org/Graphics/SVG/1.1/DTD/svg11.dtd"><svg t="1776344533233" class="icon" viewBox="0 0 1024 1024" version="1.1" xmlns="http://www.w3.org/2000/svg" p-id="3734" width="32" height="32" xmlns:xlink="http://www.w3.org/1999/xlink"><path d="M639.802994 0a42.653533 42.653533 0 0 1 42.653533 42.653533v511.842395a42.653533 42.653533 0 0 1-42.653533 42.653533h-85.307066v85.307066h63.9803a21.326766 21.326766 0 0 1 21.326766 21.326766v42.653533a21.326766 21.326766 0 0 1-17.061413 20.900231l190.14945 190.064143a21.326766 21.326766 0 0 1 0 30.198702l-30.198702 30.156047a21.326766 21.326766 0 0 1-30.156047 0L554.495928 819.672942V1002.358024a21.326766 21.326766 0 0 1-21.326766 21.326766h-42.653533a21.326766 21.326766 0 0 1-21.326767-21.326766v-182.514467l-197.912393 197.912392a21.326766 21.326766 0 0 1-30.113394 0l-30.198701-30.156047a21.326766 21.326766 0 0 1 0-30.198702l190.106796-190.021489A21.326766 21.326766 0 0 1 383.881796 746.436826v-42.653533a21.326766 21.326766 0 0 1 21.326767-21.326766H469.188862v-85.307066H383.881796a42.653533 42.653533 0 0 1-42.653533-42.653533V42.653533a42.653533 42.653533 0 0 1 42.653533-42.653533h255.921198z m329.71181 107.913438a16.208343 16.208343 0 0 1 21.028191 9.042549C1011.955069 173.429265 1023.68479 234.637085 1023.68479 298.574731c0 57.880844-9.597045 113.458398-27.298261 165.367747l-6.39803 17.573255a15.056697 15.056697 0 0 1-19.663278 8.104172l-50.843012-21.156153a15.227311 15.227311 0 0 1-8.402746-19.450011l5.587613-15.781807A426.108794 426.108794 0 0 0 938.377725 298.574731a425.596952 425.596952 0 0 0-27.426222-150.780239l-0.810417-3.241669a14.800776 14.800776 0 0 1 8.957242-15.653846l50.416476-20.985539z m-915.344817 0l50.416476 20.985539a14.800776 14.800776 0 0 1 8.957242 15.653846l-0.853071 3.241669A425.596952 425.596952 0 0 0 85.307066 298.574731a426.108794 426.108794 0 0 0 21.710648 134.699857l5.544959 15.739153a15.227311 15.227311 0 0 1-8.360092 19.450011l-50.843011 21.156153a15.056697 15.056697 0 0 1-18.255712-5.416999l-1.620835-3.113708A510.648096 510.648096 0 0 1 0 298.574731c0-63.980299 11.729722-125.145466 33.141795-181.618744a16.208343 16.208343 0 0 1 21.028192-9.042549z m753.261391 67.392582a21.326766 21.326766 0 0 1 27.298261 12.924021l3.49759 10.492769C847.866928 230.286424 853.070659 263.812101 853.070659 298.574731c0 30.284008-3.966779 59.714946-11.388494 87.65301l-4.819849 16.506917-2.516558 7.12314a21.326766 21.326766 0 0 1-27.895411 11.4738l-39.070636-16.293649a21.326766 21.326766 0 0 1-11.815029-26.701112c0.767764-2.004716 1.364913-3.838818 1.876756-5.459652C764.436617 349.503049 767.763593 324.252157 767.763593 298.574731c0-25.080277-3.62555-49.307484-10.322155-72.212432l-2.516559-7.677636a21.326766 21.326766 0 0 1 12.113604-26.530497l40.392895-16.805492z m-591.177966 0l40.392896 16.848146a21.326766 21.326766 0 0 1 12.113603 26.530497l-2.516558 7.677636A256.006505 256.006505 0 0 0 255.921198 298.574731c0 25.634773 3.326976 50.928318 10.322155 74.302454l1.834101 5.459652a21.198806 21.198806 0 0 1-11.772375 26.701112l-39.070636 16.293649a21.326766 21.326766 0 0 1-26.103962-8.061517l-2.004716-3.924125-2.303291-6.611298-0.85307-2.601866A341.100303 341.100303 0 0 1 170.614132 298.574731c0-34.762629 5.203731-68.245653 14.843429-99.851921l3.49759-10.492769a21.36942 21.36942 0 0 1 27.298261-12.881367z" p-id="3735" fill="#ffffff"></path></svg>