<svg xmlns="http://www.w3.org/2000/svg" xmlns:xlink="http://www.w3.org/1999/xlink" fill="none" version="1.1" width="27.428573608398438" height="24.000003814697266" viewBox="0 0 27.428573608398438 24.000003814697266"><path d="M5.9176493,3.8918924L6.6661258,1.5995091C6.9779911,0.64864892,7.9057903,1.7573853e-7,8.9583368,1.7573853e-7L18.470236,1.7573853e-7C19.522779,1.7573853e-7,20.450583,0.64864892,20.762445,1.5995091L21.510923,3.8918924L23.654997,3.8918924C25.7367,3.8918924,27.428574,5.4914012,27.428574,7.4594607L27.428574,20.432434C27.428574,22.400496,25.736706,24.000004,23.655003,24.000004L3.7735734,24.000004C1.6918706,24.000004,0,22.400496,0,20.432434L0,7.4594607C0,5.4914012,1.6918706,3.8918922,3.7735734,3.8918922L5.9176493,3.8918924ZM6.6817183,5.8378386L3.7735724,5.8378386C3.3213677,5.8378386,2.8847558,6.0073714,2.5572972,6.3095837C2.2376349,6.6117949,2.0583124,7.0245714,2.0583124,7.4594607L2.0583124,20.432434C2.0583124,20.859955,2.2376351,21.27273,2.5572972,21.582314C2.8769593,21.884525,3.3135715,22.054054,3.7735724,22.054054L23.670597,22.054054C24.122801,22.054054,24.55941,21.884525,24.886869,21.582314C25.206533,21.280102,25.385855,20.867325,25.385855,20.432434L25.385855,7.4594607C25.385855,7.0319419,25.206533,6.6191649,24.886869,6.3095827C24.567207,6.0073714,24.130598,5.8378386,23.670597,5.8378386L20.762451,5.8378386C20.310246,5.8378386,19.912617,5.5577402,19.780073,5.1523347L18.805494,2.1744473C18.758713,2.0417693,18.626173,1.9459461,18.478035,1.9459461L8.966136,1.9459461C8.8179998,1.9459461,8.6854572,2.0417693,8.6386786,2.1744473L7.6640978,5.1523347C7.5315547,5.5577407,7.1339259,5.8378386,6.6817183,5.8378386ZM13.722084,18.162165C10.884108,18.162165,8.5763016,15.987716,8.5763016,13.297298C8.5763016,10.60688,10.884108,8.4324331,13.722084,8.4324331C16.560061,8.4324331,18.867863,10.606879,18.867863,13.297298C18.867863,15.987716,16.567856,18.162165,13.722084,18.162165ZM13.722084,16.216219C15.429546,16.216219,16.809555,14.911549,16.809555,13.2973C16.809555,11.683051,15.429546,10.37838,13.722086,10.37838C12.014622,10.37838,10.634615,11.683048,10.634615,13.2973C10.634615,14.911551,12.014621,16.216219,13.722084,16.216219Z" fill="#D1D7DD" fill-opacity="1"/></svg>