<?xml version="1.0" standalone="no"?><!DOCTYPE svg PUBLIC "-//W3C//DTD SVG 1.1//EN" "http://www.w3.org/Graphics/SVG/1.1/DTD/svg11.dtd"><svg t="1776392966240" class="icon" viewBox="0 0 1024 1024" version="1.1" xmlns="http://www.w3.org/2000/svg" p-id="5598" xmlns:xlink="http://www.w3.org/1999/xlink" width="32" height="32"><path d="M513.89 605.3c-51.36 0-93.15-41.79-93.15-93.15 0-51.36 41.79-93.15 93.15-93.15 51.36 0 93.15 41.79 93.15 93.15 0 51.36-41.79 93.15-93.15 93.15z m0-167.29c-40.74 0-73.89 33.26-73.89 74.14 0 40.74 33.15 73.89 73.89 73.89 40.88 0 74.14-33.15 74.14-73.89 0-40.88-33.26-74.14-74.14-74.14z" fill="#ffffff" p-id="5599"></path><path d="M141.88 932.35c-11.62 0-22.45-4.83-29.77-13.25-7.46-7.86-11.35-18.1-10.97-28.87 0.39-10.96 5.12-21.09 13.32-28.53l42.65-39.64c87.28-79.39 137.29-192.32 137.29-309.9 0-95.86-31.46-186-90.98-260.65l-1.1-1.38c-3.88-5.04-8.09-9.79-12.54-14.81-0.99-1.11-1.98-2.23-2.97-3.36l-1.52-1.56-79.02-92.28c-12.9-12.04-13.75-32.7-1.8-46.35l0.25-0.28c6.43-6.76 14.94-10.33 24.6-10.33 8.53 0 16.11 2.83 21.94 8.19l81.51 64.4 0.47 0.47c76.77 69.83 176.43 108.29 280.65 108.29 91.43 0 178.07-28.74 250.56-83.1l0.14-0.1L880 96.2c6.95-6.14 15.8-9.51 24.99-9.51 10.64 0 20.48 4.33 27.72 12.2 6.83 7.3 10.4 16.89 10 26.94-0.39 9.78-4.48 18.81-11.54 25.5l-70.13 86.16-0.2 0.22c-6.25 6.73-11.99 14.22-17.54 21.45l-0.31 0.38-1.32 1.54c-54.58 72.53-83.42 159.34-83.42 251.07 0 84.92 25.08 166.28 72.52 235.29l0.57 0.85c11.64 17.08 24.09 32.67 38.02 47.58l0.46 0.54 51.84 65.05c15.18 14.46 16.03 38.59 1.76 54.15-7.47 8.09-17.84 12.71-28.49 12.71-9.64 0-18.61-3.45-25.97-9.99l-102.7-72.47-1.6-1.07c-1.84-1.3-3.69-2.61-5.54-3.93-4.82-3.44-9.79-6.99-14.75-10.18l-0.11-0.07c-68.04-45.19-147.71-69.08-230.38-69.08-85.83 0-168.22 25.84-238.25 74.74l-0.11 0.07c-16.1 10.9-31.24 23.16-45.01 36.45l-0.62 0.55-60.56 48.55c-7.54 6.85-17.03 10.46-27.45 10.46z m74.65-693.27l0.95 1.19c30.19 37.86 53.66 80.01 69.77 125.28 16.68 46.86 25.14 96.18 25.14 146.6 0 62.57-12.98 122.99-38.57 179.57-24.73 54.67-59.9 102.98-104.53 143.58l-42.72 39.71c-4.58 4.14-7.23 9.77-7.44 15.85-0.21 5.95 1.97 11.61 6.14 15.95l0.34 0.38c3.9 4.55 9.83 7.16 16.27 7.16 6.03 0 11.24-1.99 15.51-5.91l0.46-0.4 60.47-48.47c14.42-13.88 30.26-26.69 47.07-38.08 73.06-50.99 158.98-77.94 248.5-77.94 86.21 0 169.29 24.91 240.29 72.05 5.3 3.41 10.44 7.08 15.41 10.63 1.79 1.27 3.57 2.54 5.35 3.8l1.61 1.08 103.7 73.17 0.42 0.38c4.13 3.77 8.94 5.68 14.28 5.68 5.64 0 11.19-2.51 15.24-6.9 7.71-8.41 7.16-21.52-1.23-29.21l-0.52-0.47-0.44-0.55-52.03-65.29c-14.47-15.51-27.41-31.72-39.55-49.55l-0.52-0.77c-49.49-72.01-75.65-156.88-75.65-245.43 0-48.23 7.75-95.56 23.02-140.66 14.8-43.72 36.4-84.58 64.2-121.47l0.35-0.44 1.35-1.57c5.7-7.43 11.59-15.11 18.28-22.34l70.57-86.7 0.49-0.45c3.8-3.47 6.01-8.23 6.21-13.41 0.21-5.21-1.64-10.18-5.21-13.99-3.89-4.23-8.9-6.44-14.53-6.44-4.81 0-9.66 1.89-13.29 5.19l-0.38 0.34-0.42 0.3-115.73 83.34c-75.61 56.69-165.96 86.65-261.29 86.65-108.78 0-212.81-40.17-292.92-113.12l-0.18-0.17L139.51 103l-0.29-0.27c-3.12-2.95-7.11-3.57-9.9-3.57-4.68 0-8.42 1.51-11.44 4.61-5.51 6.44-5.14 16 0.87 21.39l0.44 0.4 79.53 92.87 1.4 1.43c1.04 1.18 2.08 2.35 3.12 3.52 4.45 5.01 9.04 10.19 13.29 15.7z" fill="#ffffff" p-id="5600"></path><path d="M513.88 608.94c-53.37 0-96.78-43.42-96.78-96.78 0-53.51 43.42-97.05 96.78-97.05 53.51 0 97.05 43.54 97.05 97.05 0 53.37-43.54 96.78-97.05 96.78z m0-175.83c-43.44 0-78.78 35.46-78.78 79.05 0 43.44 35.34 78.78 78.78 78.78 43.59 0 79.05-35.34 79.05-78.78 0-43.59-35.46-79.05-79.05-79.05zM125.91 247.86c-2.3 0-4.6-0.88-6.36-2.63-3.52-3.51-3.52-9.21-0.01-12.73L246.2 105.73c3.51-3.52 9.21-3.52 12.73-0.01 3.52 3.51 3.52 9.21 0.01 12.73L132.27 245.22a8.95 8.95 0 0 1-6.36 2.64zM252.63 924.72c-2.3 0-4.6-0.88-6.36-2.63L119.49 795.42c-3.52-3.51-3.52-9.21-0.01-12.73 3.51-3.52 9.21-3.52 12.73-0.01l126.77 126.66c3.52 3.51 3.52 9.21 0.01 12.73a8.935 8.935 0 0 1-6.36 2.65zM764.79 903.55c-2.3 0-4.6-0.88-6.36-2.63-3.52-3.51-3.52-9.21-0.01-12.73l126.66-126.78c3.51-3.51 9.21-3.52 12.73-0.01 3.52 3.51 3.52 9.21 0.01 12.73L771.16 900.91a8.972 8.972 0 0 1-6.37 2.64zM911.23 259.2c-2.3 0-4.6-0.88-6.36-2.63L778.09 129.9c-3.52-3.51-3.52-9.21-0.01-12.73 3.51-3.52 9.21-3.52 12.73-0.01l126.78 126.66c3.52 3.51 3.52 9.21 0.01 12.73a8.94 8.94 0 0 1-6.37 2.65zM614.92 74.59c-1.05 0-2.12-0.19-3.16-0.58-55.43-20.78-107.67-19.74-141.73-15.21-37.14 4.94-61.41 14.99-61.65 15.09-4.58 1.92-9.86-0.23-11.78-4.81s0.22-9.85 4.8-11.78c1.05-0.44 26.27-10.95 65.62-16.26 36.25-4.89 91.89-6.07 151.07 16.12a9.012 9.012 0 0 1 5.27 11.59 9.04 9.04 0 0 1-8.44 5.84zM67.97 626.17c-3.51 0-6.84-2.07-8.29-5.5-0.44-1.05-10.95-26.27-16.26-65.62-4.89-36.25-6.07-91.89 16.12-151.07 1.74-4.65 6.93-7.01 11.59-5.27a9.012 9.012 0 0 1 5.27 11.59c-20.79 55.43-19.75 107.67-15.22 141.73 4.94 37.14 14.99 61.41 15.09 61.65 1.92 4.58-0.23 9.86-4.81 11.78-1.15 0.48-2.33 0.71-3.49 0.71zM513.07 984.89c-31.29 0-68.56-4.51-107.35-19.05a9.012 9.012 0 0 1-5.27-11.59c1.74-4.65 6.93-7.01 11.59-5.27 106.58 39.97 202.42 0.54 203.38 0.13 4.58-1.93 9.86 0.22 11.79 4.8 1.93 4.58-0.22 9.86-4.8 11.79-1.05 0.44-26.27 10.95-65.62 16.26a327.35 327.35 0 0 1-43.72 2.93zM955.23 626.17c-1.05 0-2.12-0.18-3.16-0.58A9.012 9.012 0 0 1 946.8 614c20.79-55.43 19.75-107.67 15.22-141.73-4.94-37.14-14.99-61.41-15.09-61.65-1.92-4.58 0.23-9.86 4.81-11.78 4.58-1.92 9.85 0.22 11.78 4.8 0.44 1.05 10.95 26.27 16.26 65.62 4.89 36.25 6.07 91.89-16.12 151.07a9.017 9.017 0 0 1-8.43 5.84z" fill="#ffffff" p-id="5601"></path></svg>