<?xml version="1.0" standalone="no"?><!DOCTYPE svg PUBLIC "-//W3C//DTD SVG 1.1//EN" "http://www.w3.org/Graphics/SVG/1.1/DTD/svg11.dtd"><svg t="1776392867832" class="icon" viewBox="0 0 1117 1024" version="1.1" xmlns="http://www.w3.org/2000/svg" p-id="3692" xmlns:xlink="http://www.w3.org/1999/xlink" width="34.90625" height="32"><path d="M335.18386 625.628762q-26.351963 20.577873-56.18476 28.440463c-116.628422 30.836096-167.284797 81.431045-167.284797 113.782328 0 63.822119 197.834236 142.140889 446.877687 142.140889 249.04345 0 446.918638-78.31877 446.918638-142.140889 0-32.146528-52.069185-82.884805-167.632881-113.782328q-29.853272-7.924017-55.898103-28.440463h55.898103c167.571454 0 279.285757 40.275299 279.285757 142.222791C1117.163504 923.833877 864.884925 1023.77477 558.59199 1023.77477 252.299054 1023.77477 0 923.854352 0 767.831077c0-102.377477 139.294795-142.202315 278.9991-142.202315h56.164284z" p-id="3693" fill="#ffffff"></path><path d="M446.3658 862.714523l25.655795-117.324589 200.086541-0.368559 25.614845 115.440843 125.719542-1.105676-124.40911-277.647718-63.453561-1.146628 25.082482 112.963308-177.153986-0.491412 25.062007-114.662774-63.494512-1.126152-124.388634 286.575034 125.699066-1.105677zM442.823539 112.574274c0-16.503249-86.529444-29.935174-193.309152-29.935175-106.800184 0-193.329627 13.431925-193.329628 29.935175 0 16.482774 86.529444 29.935174 193.329628 29.935174 106.779708 0 193.288676-13.4524 193.288676-29.935174z m148.652096 299.474595h-29.730419c-16.380396 0-29.730419 13.431925-29.730419 29.935175a29.894223 29.894223 0 0 0 29.730419 29.935174h29.730419c16.380396 0 29.730419-13.431925 29.73042-29.935174a29.894223 29.894223 0 0 0-29.73042-29.935175zM1067.40805 112.574274c0-16.503249-86.508968-29.935174-193.288676-29.935175-106.800184 0-193.45248 13.431925-193.452481 29.935175 0 16.482774 86.529444 29.935174 193.309152 29.935174 106.800184 0 193.432005-13.4524 193.432005-29.935174z m-208.235788 59.870348H829.462318v59.870349h-61.9998l-33.006498-29.935175H412.233149l-25.962928 29.935175h-62.491212V172.444622H294.028114V142.509448h-59.583692v29.935174H204.734478v149.798724l59.460839 209.669073h59.460839l-59.460839-209.669073h117.222211L414.424027 352.178521h87.839875a59.604167 59.604167 0 0 0-59.440363 59.870348v59.870349a59.604167 59.604167 0 0 0 59.460838 59.870348h148.652097a59.604167 59.604167 0 0 0 59.460839-59.870348v-59.870349a59.686069 59.686069 0 0 0-59.460839-59.870348h88.106057l28.256183-29.935175h114.089461l-52.069185 209.669073h59.460838l52.192038-209.669073h7.391654V172.444622h-29.730419V142.509448h-59.583692v29.935174h0.122853zM591.475635 501.854392h-29.730419a59.604167 59.604167 0 0 1-59.460839-59.870348 59.604167 59.604167 0 0 1 59.460839-59.870349h29.730419c32.883646 0 59.460839 26.884325 59.460839 59.870349a59.604167 59.604167 0 0 1-59.460839 59.870348z m74.387475-179.611046a44.841335 44.841335 0 0 1-44.657055-44.964187c0-5.262202 0.839495-10.258223 2.538961-15.029014h-94.289656c1.699466 4.647937 2.559437 9.766811 2.559437 15.029014a44.841335 44.841335 0 0 1-44.657056 44.964187 44.841335 44.841335 0 0 1-44.657055-44.964187 44.841335 44.841335 0 0 1 44.63658-44.964188c5.241727 0 10.217272 0.859971 14.947111 2.559437v-2.559437h148.652097v2.559437c4.606986-1.699466 9.705385-2.559437 14.926636-2.559437a44.841335 44.841335 0 0 1 44.657056 44.964188c-0.122853 24.795825-20.025034 44.964188-44.657056 44.964187z" p-id="3694" fill="#ffffff"></path></svg>