<?xml version="1.0" encoding="UTF-8"?>
<svg id="Layer_1" xmlns="http://www.w3.org/2000/svg" xmlns:xlink="http://www.w3.org/1999/xlink" version="1.1" viewBox="0 0 750 1334">
  <!-- Generator: Adobe Illustrator 29.1.0, SVG Export Plug-In . SVG Version: 2.1.0 Build 142)  -->
  <defs>
    <style>
      .st0 {
        fill: none;
      }

      .st1 {
        clip-path: url(#clippath);
      }

      .st2 {
        fill: #999;
      }
    </style>
    <clipPath id="clippath">
      <rect class="st0" x="-182" y="257" width="1113.8" height="820.7"/>
    </clipPath>
  </defs>
  <g class="st1">
    <path class="st2" d="M585.9,462.3c33.9,0,61.7,26.4,63.9,59.8v4.2c.1,0,.1,64,.1,64h38.4c131.5,0,239.2,104.6,243.1,236v7.2c.1,134.3-108.7,243.2-243,243.2H125.2c-72.8,0-133.6-55.5-140.2-128h-90.2s0,51.2,0,51.2c0,20.5-16,37.5-36.5,38.5-20.5,1-38.2-14.3-40.1-34.8l-.2-3.7v-332.8c0-20.5,16-37.5,36.5-38.5,20.5-1,38.2,14.4,40.1,34.8l.2,3.7v38.4H-13.3c12-64.6,66.9-112.3,132.5-115.1h6c0-.1,12.8-.1,12.8-.1v-64c0-33.9,26.4-61.7,59.8-63.9h4.2c0-.1,383.9-.1,383.9-.1ZM688.4,667.1H125.2c-35.4,0-64,28.7-64,64v204.8c0,35.3,28.7,64,64,64h563.2c60,.8,115.7-30.8,145.9-82.6s30.2-115.8,0-167.6c-30.2-51.8-85.9-83.3-145.9-82.6h0ZM-15.6,782.3h-89.6v89.6H-15.6v-89.6ZM573.2,539.2H214.8v51.2h358.4v-51.2ZM573.2,539.2"/>
  </g>
</svg>