<?xml version="1.0" standalone="no"?><!DOCTYPE svg PUBLIC "-//W3C//DTD SVG 1.1//EN" "http://www.w3.org/Graphics/SVG/1.1/DTD/svg11.dtd"><svg t="1776152344510" class="icon" viewBox="0 0 1024 1024" version="1.1" xmlns="http://www.w3.org/2000/svg" p-id="13746" xmlns:xlink="http://www.w3.org/1999/xlink" width="200" height="200"><path d="M625.777778 284.444444v56.888889h28.444444a56.888889 56.888889 0 0 1 56.888889 56.888889v102.769778l57.144889 18.688a56.888889 56.888889 0 0 1 35.527111 74.24l-52.622222 138.951111c21.020444-5.745778 36.778667-12.828444 44.856889-17.720889a28.444444 28.444444 0 0 1 29.297778 48.810667c-28.444444 17.066667-102.286222 44.657778-189.326223 32.199111a589.368889 589.368889 0 0 1-30.634666-5.347556c-23.210667-4.494222-44.373333-8.590222-93.354667-8.590222-48.952889 0-70.144 4.096-93.354667 8.590222a589.368889 589.368889 0 0 1-30.606222 5.347556c-87.04 12.430222-160.881778-15.132444-189.326222-32.199111a28.444444 28.444444 0 0 1 29.269333-48.810667c8.106667 4.892444 23.836444 11.975111 44.885334 17.720889l-52.622223-138.979555a56.888889 56.888889 0 0 1 35.498667-74.24L312.888889 501.020444V398.222222a56.888889 56.888889 0 0 1 56.888889-56.888889h28.444444v-56.888889a56.888889 56.888889 0 0 1 56.888889-56.888888h113.777778a56.888889 56.888889 0 0 1 56.888889 56.888888z m-170.666667 0v56.888889h113.777778v-56.888889h-113.777778z m-85.333333 197.973334l49.834666-16.298667-1.137777-0.369778 30.464-9.187555 16.952889-5.546667c2.702222-0.853333 5.404444-1.536 8.106666-1.991111l19.911111-6.030222a56.149333 56.149333 0 0 1 36.209778 0l19.854222 6.001778c2.702222 0.483556 5.404444 1.137778 8.135111 2.019555l16.952889 5.546667 2.816 0.853333-0.085333 0.028445L654.222222 482.417778V398.222222H369.777778v84.195556z m113.777778 22.670222l-210.147556 68.664889 63.857778 168.561778a256.568889 256.568889 0 0 0 42.723555-2.474667c8.732444-1.251556 16.839111-2.816 25.315556-4.465778A461.852444 461.852444 0 0 1 483.555556 725.902222v-220.785778z m267.036444 68.664889L540.444444 505.088v220.785778c36.693333 1.450667 58.481778 5.688889 78.279112 9.500444 8.448 1.649778 16.554667 3.214222 25.315555 4.465778 14.791111 2.104889 29.098667 2.816 42.666667 2.474667l63.886222-168.561778z" fill="#3666EF" p-id="13747"></path></svg>