<?xml version="1.0" standalone="no"?><!DOCTYPE svg PUBLIC "-//W3C//DTD SVG 1.1//EN" "http://www.w3.org/Graphics/SVG/1.1/DTD/svg11.dtd"><svg t="1776344595431" class="icon" viewBox="0 0 1024 1024" version="1.1" xmlns="http://www.w3.org/2000/svg" p-id="4917" xmlns:xlink="http://www.w3.org/1999/xlink" width="32" height="32"><path d="M96.94 213.28a21.93 21.93 0 0 0 31 0l27.15-27.15 27.15 27.15a21.94 21.94 0 1 0 31-31l-27.15-27.15L213.28 128a21.94 21.94 0 1 0-31-31l-27.15 27.15L128 96.94a21.94 21.94 0 0 0-31 31l27.15 27.15-27.21 27.17a21.93 21.93 0 0 0 0 31.02zM387.87 356.84a21.94 21.94 0 1 0-31 31l42.66 42.66a21.94 21.94 0 0 0 31-31zM542.64 564.58a21.94 21.94 0 0 0 15.51-37.45l-42.28-42.28a21.94 21.94 0 1 0-31 31l42.28 42.28a21.87 21.87 0 0 0 15.49 6.45zM671 693a21.94 21.94 0 0 0 15.51-37.45l-42.3-42.3a21.94 21.94 0 0 0-31 31l42.3 42.3A21.87 21.87 0 0 0 671 693zM798.65 820.59a21.94 21.94 0 0 0 15.51-37.45l-42.3-42.3a21.94 21.94 0 1 0-31 31l42.3 42.3a21.87 21.87 0 0 0 15.49 6.45zM900.23 869.2a21.94 21.94 0 1 0-31 31l42.3 42.3a21.94 21.94 0 0 0 31-31zM523.57 673.55a21.94 21.94 0 0 0-31 31l42.3 42.3a21.94 21.94 0 1 0 31-31zM651.19 801.17a21.94 21.94 0 1 0-31 31l42.3 42.3a21.94 21.94 0 0 0 31-31zM779.55 929.54a21.94 21.94 0 1 0-31 31l42.3 42.3a21.94 21.94 0 1 0 31-31z" p-id="4918" fill="#ffffff"></path><path d="M618.49 406.45l-42.28-42.28a21.91 21.91 0 0 0-22.39-5.3A381.76 381.76 0 0 0 586.93 203c0-0.73 0-1.46-0.11-2.17a21.86 21.86 0 0 0-6.55-13.57L399.48 6.43a21.94 21.94 0 0 0-31 31l146.75 146.8c-172 22.35-308.65 159-331 331L37.45 368.46a21.94 21.94 0 0 0-31 31l180.77 180.81a21.86 21.86 0 0 0 13.56 6.54c0.71 0.07 1.44 0.11 2.17 0.11a381.76 381.76 0 0 0 155.91-33.1 21.91 21.91 0 0 0 5.3 22.39l42.28 42.28a21.94 21.94 0 1 0 31-31l-42.24-42.3a21.82 21.82 0 0 0-8.39-5.22A386.76 386.76 0 0 0 540 386.81a21.82 21.82 0 0 0 5.22 8.39l42.28 42.28a21.94 21.94 0 1 0 30.99-31.03zM225.67 542.28a337.85 337.85 0 0 1 17.43-87.13l35.72 35.72a21.94 21.94 0 1 0 31-31l-42.66-42.66a21.86 21.86 0 0 0-6.29-4.37A342.36 342.36 0 0 1 412.81 260.9a21.86 21.86 0 0 0 4.37 6.29l42.66 42.66a21.94 21.94 0 1 0 31-31l-35.69-35.75a337.85 337.85 0 0 1 87.13-17.43C531 395.14 395.14 531 225.67 542.28zM746.88 534.84l-42.3-42.3a21.94 21.94 0 0 0-31 31l42.3 42.3a21.94 21.94 0 1 0 31-31zM874.5 662.46l-42.3-42.3a21.94 21.94 0 0 0-31 31l42.3 42.3a21.94 21.94 0 0 0 31-31zM1002.86 790.82l-42.3-42.3a21.94 21.94 0 1 0-31 31l42.3 42.3a21.94 21.94 0 1 0 31-31z" p-id="4919" fill="#ffffff"></path></svg>