<svg xmlns="http://www.w3.org/2000/svg" xmlns:xlink="http://www.w3.org/1999/xlink" fill="none" version="1.1" width="20.013336181640625" height="30.000001907348633" viewBox="0 0 20.013336181640625 30.000001907348633"><path d="M19.186668,2.9028239C18.040003,1.8189369,15.333335,0,10,0C4.6666675,0,1.9600003,1.8189369,0.81333339,2.9028239C0.29333332,3.4011626,0,4.0490031,0,4.7342196L0,11.686047C0,13.181064,1.4000001,14.401994,3.1200004,14.401994L5.8933334,14.401994L1.2000002,28.54236C1.0000001,29.127909,1.3600001,29.76329,1.9866667,29.950167C2.1066666,29.987543,2.2266667,30.000002,2.3466668,30.000002C2.8533337,30.000002,3.3333335,29.68854,3.4933338,29.215118L8.3200006,14.663622C8.3466673,14.576412,8.3600006,14.489202,8.3733349,14.389536L8.8133345,14.389536L8.8133345,28.878736C8.8133345,29.501659,9.3466682,30.000002,10.013334,30.000002C10.680001,30.000002,11.213335,29.501659,11.213335,28.878736L11.213335,14.389536L11.773335,14.389536C11.773335,14.476744,11.800001,14.563954,11.826668,14.663622L16.653336,29.215118C16.813335,29.700996,17.293337,30.000002,17.800005,30.000002C18.306671,30.000002,18.040005,29.987543,18.160004,29.950167C18.786671,29.76329,19.146669,29.140368,18.946669,28.54236L14.253336,14.389536L16.893335,14.389536C18.613337,14.389536,20.013336,13.168606,20.013336,11.67359L20.013336,4.7217627C20.013336,4.0365467,19.720001,3.388706,19.200003,2.8903668L19.186668,2.9028239ZM17.600002,11.673587C17.600002,11.89784,17.306669,12.14701,16.879999,12.14701L3.1200004,12.14701C2.6933334,12.14701,2.4000003,11.89784,2.4000003,11.673587L2.4000003,4.7217603C2.4000003,4.6096344,2.4666669,4.5224252,2.5200002,4.4601331C4.6400003,2.4418604,8.4533339,2.2300665,10,2.2300665C14.626668,2.2300665,16.773336,3.7873755,17.480001,4.4601331C17.533335,4.5099669,17.600002,4.5971761,17.600002,4.7217603L17.600002,11.673587Z" fill="#D1D7DD" fill-opacity="1" style="mix-blend-mode:passthrough"/></svg>