<svg xmlns="http://www.w3.org/2000/svg" xmlns:xlink="http://www.w3.org/1999/xlink" fill="none" version="1.1" width="32" height="32" viewBox="0 0 32 32"><g><path d="M16,32C24.836481,32,32,24.836481,32,16C32,7.1634398,24.836481,0,16,0C7.1634398,0,0,7.1634398,0,16C0,24.836481,7.1634398,32,16,32ZM1.6054511,15.599901C1.8137347,7.9648781,7.9649844,1.8136679,15.600023,1.6054478L15.600023,6.4080844C10.616246,6.61235,6.6124725,10.616123,6.4082065,15.599901L1.6054511,15.599901ZM16.400024,1.605449L16.400024,6.4080844C18.340755,6.4876275,20.132881,7.1433282,21.609905,8.2086945Q21.977381,8,22.399988,8Q22.614334,8,22.821119,8.0564165Q23.027905,8.112833,23.212549,8.2216873L25.895561,5.5386767C23.405478,3.1824446,20.074608,1.7056714,16.400024,1.605449ZM23.778257,8.787365L26.461254,6.1043663C28.817514,8.59445,30.294306,11.925328,30.394547,15.599901L25.591841,15.599901C25.512299,13.659203,24.856619,11.867106,23.791286,10.390097Q23.999989,10.022615,23.999989,9.6000004Q23.999989,9.3856354,23.943562,9.1788292Q23.887135,8.972023,23.778257,8.787365ZM21.587353,10.978269Q21.772011,11.087143,21.978815,11.143572Q22.185623,11.199999,22.399988,11.2L22.400679,11.2C23.330141,12.437458,23.909111,13.953222,23.990196,15.599901L17.549217,15.599901Q17.492842,15.381559,17.378315,15.187304L21.587353,10.978269ZM20.799988,9.5992947L20.799988,9.6000004Q20.799988,9.8143444,20.856403,10.02113Q20.912821,10.227916,21.021675,10.412561L16.812624,14.621613Q16.618368,14.507085,16.400024,14.450709L16.400024,8.0097284C18.046732,8.0908155,19.562517,8.6698036,20.799988,9.5992947ZM15.600023,14.450709L15.600023,8.0097284C11.500097,8.2116165,8.2117386,11.499974,8.0098505,15.599901L14.450831,15.599901Q14.477507,15.496589,14.517664,15.397734Q14.557822,15.298877,14.610751,15.206228Q14.663679,15.11358,14.728441,15.02878Q14.793203,14.94398,14.868652,14.86853Q14.944101,14.793081,15.028902,14.728319Q15.113702,14.663557,15.20635,14.610629Q15.298999,14.557701,15.397855,14.517543Q15.496711,14.477385,15.600023,14.450709ZM14.450831,16.399902L8.0098505,16.399902C8.2117386,20.49983,11.500097,23.788187,15.600023,23.990074L15.600023,17.549095Q15.49671,17.522419,15.397854,17.482264Q15.298998,17.442104,15.206349,17.389177Q15.113701,17.336248,15.028902,17.271484Q14.944102,17.206722,14.868653,17.131273Q14.793204,17.055824,14.728441,16.971025Q14.663679,16.886227,14.610751,16.793577Q14.557822,16.700928,14.517664,16.602072Q14.477507,16.503216,14.450831,16.399902ZM16.400024,17.549097L16.400024,23.990074C20.499954,23.788185,23.788307,20.49983,23.990196,16.399902L17.549219,16.399902Q17.522545,16.503216,17.482386,16.602072Q17.442228,16.700928,17.389299,16.793577Q17.336372,16.886227,17.27161,16.971025Q17.206848,17.055826,17.131397,17.131275Q17.055946,17.206726,16.971148,17.271488Q16.886349,17.33625,16.793699,17.389177Q16.70105,17.442104,16.602194,17.482264Q16.503338,17.522421,16.400024,17.549097ZM1.6054456,16.399902L6.4082065,16.399902C6.6124725,21.38368,10.616246,25.387453,15.600023,25.591719L15.600023,30.39455C7.9649177,30.186331,1.8136275,24.035074,1.6054456,16.399902ZM16.400024,30.394548L16.400024,25.591719C21.383802,25.387451,25.387575,21.38368,25.591841,16.399902L30.394552,16.399902C30.186373,24.035059,24.035166,30.186306,16.400024,30.394548Z" fill-rule="evenodd" fill="#D1D7DD" fill-opacity="1"/></g></svg>